<?xml version="1.0" standalone="no"?><svg xmlns="http://www.w3.org/2000/svg" viewBox="0 0 1440 320"><path fill="#801cff" fill-opacity="1" d="M0,192L10.4,192C20.9,192,42,192,63,208C83.5,224,104,256,125,245.3C146.1,235,167,181,188,181.3C208.7,181,230,235,250,229.3C271.3,224,292,160,313,154.7C333.9,149,355,203,376,202.7C396.5,203,417,149,438,154.7C459.1,160,480,224,501,250.7C521.7,277,543,267,563,240C584.3,213,605,171,626,176C647,181,668,235,689,240C709.6,245,730,203,751,170.7C772.2,139,793,117,814,144C834.8,171,856,245,877,266.7C897.4,288,918,256,939,250.7C960,245,981,267,1002,240C1022.6,213,1043,139,1064,117.3C1085.2,96,1106,128,1127,138.7C1147.8,149,1169,139,1190,154.7C1210.4,171,1231,213,1252,213.3C1273,213,1294,171,1315,176C1335.7,181,1357,235,1377,229.3C1398.3,224,1419,160,1430,128L1440,96L1440,0L1429.6,0C1419.1,0,1398,0,1377,0C1356.5,0,1336,0,1315,0C1293.9,0,1273,0,1252,0C1231.3,0,1210,0,1190,0C1168.7,0,1148,0,1127,0C1106.1,0,1085,0,1064,0C1043.5,0,1023,0,1002,0C980.9,0,960,0,939,0C918.3,0,897,0,877,0C855.7,0,835,0,814,0C793,0,772,0,751,0C730.4,0,710,0,689,0C667.8,0,647,0,626,0C605.2,0,584,0,563,0C542.6,0,522,0,501,0C480,0,459,0,438,0C417.4,0,397,0,376,0C354.8,0,334,0,313,0C292.2,0,271,0,250,0C229.6,0,209,0,188,0C167,0,146,0,125,0C104.3,0,83,0,63,0C41.7,0,21,0,10,0L0,0Z"></path></svg>