<?xml version="1.0" standalone="no"?><svg xmlns="http://www.w3.org/2000/svg" viewBox="0 0 1440 320"><path fill="#ff1cb2" fill-opacity="1" d="M0,192L10.4,192C20.9,192,42,192,63,208C83.5,224,104,256,125,245.3C146.1,235,167,181,188,181.3C208.7,181,230,235,250,229.3C271.3,224,292,160,313,154.7C333.9,149,355,203,376,202.7C396.5,203,417,149,438,154.7C459.1,160,480,224,501,250.7C521.7,277,543,267,563,240C584.3,213,605,171,626,176C647,181,668,235,689,240C709.6,245,730,203,751,170.7C772.2,139,793,117,814,144C834.8,171,856,245,877,266.7C897.4,288,918,256,939,250.7C960,245,981,267,1002,240C1022.6,213,1043,139,1064,117.3C1085.2,96,1106,128,1127,138.7C1147.8,149,1169,139,1190,154.7C1210.4,171,1231,213,1252,213.3C1273,213,1294,171,1315,176C1335.7,181,1357,235,1377,229.3C1398.3,224,1419,160,1430,128L1440,96L1440,320L1429.6,320C1419.1,320,1398,320,1377,320C1356.5,320,1336,320,1315,320C1293.9,320,1273,320,1252,320C1231.3,320,1210,320,1190,320C1168.7,320,1148,320,1127,320C1106.1,320,1085,320,1064,320C1043.5,320,1023,320,1002,320C980.9,320,960,320,939,320C918.3,320,897,320,877,320C855.7,320,835,320,814,320C793,320,772,320,751,320C730.4,320,710,320,689,320C667.8,320,647,320,626,320C605.2,320,584,320,563,320C542.6,320,522,320,501,320C480,320,459,320,438,320C417.4,320,397,320,376,320C354.8,320,334,320,313,320C292.2,320,271,320,250,320C229.6,320,209,320,188,320C167,320,146,320,125,320C104.3,320,83,320,63,320C41.7,320,21,320,10,320L0,320Z"></path></svg>